<svg width="217" height="1400" viewBox="0 0 217 1400" fill="none" xmlns="http://www.w3.org/2000/svg">
<mask id="path-1-outside-1_4_190" maskUnits="userSpaceOnUse" x="0.259464" y="-0.103951" width="220.814" height="1400.35" fill="black">
<rect fill="white" x="0.259464" y="-0.103951" width="220.814" height="1400.35"/>
<path d="M199.262 1398.78L1.87626 1396.41L2.42619 1350.73L162.591 1352.66L163.782 1253.68L201.003 1254.13L199.262 1398.78ZM83.949 1185.17L85.093 1090.14L120.622 1090.57L119.478 1185.6L83.949 1185.17ZM165.2 1182.77L166.493 1075.33L203.151 1075.77L201.311 1228.61L3.92496 1226.23L5.72071 1077.06L42.3781 1077.5L41.1288 1181.27L165.2 1182.77ZM204.268 982.964L5.85695 1065.75L6.451 1016.4L182.175 944.061L181.825 973.105L7.90729 895.43L8.45383 850.031L204.811 937.847L204.268 982.964ZM88.6763 792.493L89.8203 697.466L125.35 697.893L124.206 792.92L88.6763 792.493ZM169.927 790.087L171.22 682.652L207.878 683.094L206.038 835.927L8.65222 833.55L10.448 684.383L47.1053 684.825L45.8561 788.593L169.927 790.087ZM208.315 646.747L10.9297 644.371L11.4796 598.69L171.644 600.618L172.836 501.643L210.057 502.092L208.315 646.747ZM215.765 309.056C215.428 337.066 207.363 358.872 191.57 374.475C175.777 390.078 153.405 397.705 124.455 397.357L13.9194 396.026L14.4693 350.345L123.313 351.656C142.112 351.882 155.693 348.191 164.058 340.583C172.422 332.976 176.688 322.216 176.855 308.305C177.023 294.394 173.017 283.535 164.838 275.728C156.66 267.921 143.171 263.904 124.373 263.678L15.5284 262.368L16.0715 217.251L126.608 218.582C155.557 218.93 177.739 227.094 193.152 243.073C208.564 259.051 216.102 281.046 215.765 309.056ZM214.001 174.486L16.615 172.11L17.6435 86.6703C17.8563 68.9996 20.9534 53.8078 26.9348 41.0948C32.7283 28.3797 41.0245 18.6088 51.8235 11.7823C62.6225 4.95581 75.4474 1.63195 90.2983 1.81073C104.961 1.98725 117.608 5.61776 128.24 12.7022C138.871 19.7867 147.024 29.7556 152.698 42.6088C158.183 55.4598 160.82 70.7206 160.607 88.3914L159.884 148.453L139.544 127.903L214.551 128.806L214.001 174.486ZM144.62 127.964L122.663 148.005L123.355 90.4811C123.525 76.3821 120.644 65.8187 114.712 58.7908C108.78 51.7628 100.457 48.1844 89.7416 48.0554C78.8384 47.9241 70.3371 51.3 64.2378 58.1831C58.1385 65.0662 55.004 75.5572 54.8343 89.6562L54.1418 147.18L32.6738 126.616L144.62 127.964Z"/>
</mask>
<path d="M199.262 1398.78L199.25 1399.78L200.25 1399.8L200.262 1398.8L199.262 1398.78ZM1.87626 1396.41L0.876329 1396.4L0.864291 1397.4L1.86422 1397.41L1.87626 1396.41ZM2.42618 1350.73L2.43822 1349.73L1.43829 1349.72L1.42626 1350.72L2.42618 1350.73ZM162.591 1352.66L162.579 1353.66L163.578 1353.67L163.591 1352.67L162.591 1352.66ZM163.782 1253.68L163.794 1252.68L162.794 1252.67L162.782 1253.67L163.782 1253.68ZM201.003 1254.13L202.003 1254.14L202.015 1253.14L201.015 1253.13L201.003 1254.13ZM199.262 1398.78L199.274 1397.78L1.88829 1395.41L1.87626 1396.41L1.86422 1397.41L199.25 1399.78L199.262 1398.78ZM1.87626 1396.41L2.87618 1396.42L3.42611 1350.74L2.42618 1350.73L1.42626 1350.72L0.876329 1396.4L1.87626 1396.41ZM2.42618 1350.73L2.41415 1351.73L162.579 1353.66L162.591 1352.66L162.603 1351.66L2.43822 1349.73L2.42618 1350.73ZM162.591 1352.66L163.591 1352.67L164.782 1253.69L163.782 1253.68L162.782 1253.67L161.591 1352.64L162.591 1352.66ZM163.782 1253.68L163.77 1254.68L200.991 1255.13L201.003 1254.13L201.015 1253.13L163.794 1252.68L163.782 1253.68ZM201.003 1254.13L200.003 1254.12L198.262 1398.77L199.262 1398.78L200.262 1398.8L202.003 1254.14L201.003 1254.13ZM83.949 1185.17L82.9491 1185.16L82.937 1186.16L83.937 1186.17L83.949 1185.17ZM85.093 1090.14L85.105 1089.14L84.1051 1089.13L84.0931 1090.13L85.093 1090.14ZM120.622 1090.57L121.622 1090.58L121.634 1089.58L120.634 1089.57L120.622 1090.57ZM119.478 1185.6L119.466 1186.6L120.466 1186.61L120.478 1185.61L119.478 1185.6ZM165.2 1182.77L165.188 1183.77L166.188 1183.78L166.2 1182.78L165.2 1182.77ZM166.493 1075.33L166.505 1074.33L165.505 1074.32L165.493 1075.32L166.493 1075.33ZM203.151 1075.77L204.15 1075.78L204.163 1074.78L203.163 1074.77L203.151 1075.77ZM201.311 1228.61L201.299 1229.61L202.299 1229.62L202.311 1228.62L201.311 1228.61ZM3.92496 1226.23L2.92503 1226.22L2.91299 1227.22L3.91292 1227.23L3.92496 1226.23ZM5.72071 1077.06L5.73275 1076.06L4.73282 1076.05L4.72078 1077.05L5.72071 1077.06ZM42.3781 1077.5L43.378 1077.52L43.39 1076.52L42.3901 1076.5L42.3781 1077.5ZM41.1288 1181.27L40.1289 1181.26L40.1169 1182.26L41.1168 1182.27L41.1288 1181.27ZM83.949 1185.17L84.9489 1185.18L86.0929 1090.16L85.093 1090.14L84.0931 1090.13L82.9491 1185.16L83.949 1185.17ZM85.093 1090.14L85.0809 1091.14L120.61 1091.57L120.622 1090.57L120.634 1089.57L85.105 1089.14L85.093 1090.14ZM120.622 1090.57L119.622 1090.56L118.478 1185.59L119.478 1185.6L120.478 1185.61L121.622 1090.58L120.622 1090.57ZM119.478 1185.6L119.49 1184.6L83.961 1184.17L83.949 1185.17L83.937 1186.17L119.466 1186.6L119.478 1185.6ZM165.2 1182.77L166.2 1182.78L167.493 1075.34L166.493 1075.33L165.493 1075.32L164.2 1182.75L165.2 1182.77ZM166.493 1075.33L166.481 1076.33L203.139 1076.77L203.151 1075.77L203.163 1074.77L166.505 1074.33L166.493 1075.33ZM203.151 1075.77L202.151 1075.76L200.311 1228.59L201.311 1228.61L202.311 1228.62L204.15 1075.78L203.151 1075.77ZM201.311 1228.61L201.323 1227.61L3.937 1225.23L3.92496 1226.23L3.91292 1227.23L201.299 1229.61L201.311 1228.61ZM3.92496 1226.23L4.92489 1226.24L6.72064 1077.07L5.72071 1077.06L4.72078 1077.05L2.92503 1226.22L3.92496 1226.23ZM5.72071 1077.06L5.70867 1078.06L42.366 1078.5L42.3781 1077.5L42.3901 1076.5L5.73275 1076.06L5.72071 1077.06ZM42.3781 1077.5L41.3781 1077.49L40.1289 1181.26L41.1288 1181.27L42.1288 1181.28L43.378 1077.52L42.3781 1077.5ZM41.1288 1181.27L41.1168 1182.27L165.188 1183.77L165.2 1182.77L165.212 1181.77L41.1409 1180.27L41.1288 1181.27ZM204.268 982.964L204.653 983.886L205.26 983.633L205.268 982.976L204.268 982.964ZM5.85694 1065.75L4.85702 1065.73L4.83871 1067.25L6.242 1066.67L5.85694 1065.75ZM6.451 1016.4L6.07033 1015.47L5.45903 1015.73L5.45107 1016.39L6.451 1016.4ZM182.175 944.061L183.174 944.073L183.193 942.56L181.794 943.136L182.175 944.061ZM181.825 973.105L181.417 974.018L182.806 974.638L182.825 973.117L181.825 973.105ZM7.90729 895.43L6.90736 895.418L6.89945 896.075L7.49949 896.343L7.90729 895.43ZM8.45382 850.031L8.86208 849.118L7.47222 848.496L7.45389 850.019L8.45382 850.031ZM204.811 937.847L205.811 937.859L205.819 937.202L205.219 936.934L204.811 937.847ZM204.268 982.964L203.883 982.041L5.47189 1064.82L5.85694 1065.75L6.242 1066.67L204.653 983.886L204.268 982.964ZM5.85694 1065.75L6.85687 1065.76L7.45093 1016.41L6.451 1016.4L5.45107 1016.39L4.85702 1065.73L5.85694 1065.75ZM6.451 1016.4L6.83167 1017.32L182.555 944.986L182.175 944.061L181.794 943.136L6.07033 1015.47L6.451 1016.4ZM182.175 944.061L181.175 944.049L180.825 973.093L181.825 973.105L182.825 973.117L183.174 944.073L182.175 944.061ZM181.825 973.105L182.233 972.192L8.31509 894.516L7.90729 895.43L7.49949 896.343L181.417 974.018L181.825 973.105ZM7.90729 895.43L8.90722 895.442L9.45375 850.043L8.45382 850.031L7.45389 850.019L6.90736 895.418L7.90729 895.43ZM8.45382 850.031L8.04556 850.944L204.403 938.76L204.811 937.847L205.219 936.934L8.86208 849.118L8.45382 850.031ZM204.811 937.847L203.811 937.835L203.268 982.952L204.268 982.964L205.268 982.976L205.811 937.859L204.811 937.847ZM88.6763 792.493L87.6763 792.481L87.6643 793.481L88.6642 793.493L88.6763 792.493ZM89.8202 697.466L89.8323 696.466L88.8324 696.454L88.8203 697.454L89.8202 697.466ZM125.35 697.893L126.35 697.905L126.362 696.905L125.362 696.893L125.35 697.893ZM124.206 792.92L124.194 793.92L125.194 793.932L125.206 792.933L124.206 792.92ZM169.927 790.087L169.915 791.087L170.915 791.099L170.927 790.099L169.927 790.087ZM171.22 682.652L171.233 681.653L170.233 681.64L170.221 682.64L171.22 682.652ZM207.878 683.094L208.878 683.106L208.89 682.106L207.89 682.094L207.878 683.094ZM206.038 835.927L206.026 836.927L207.026 836.939L207.038 835.939L206.038 835.927ZM8.65222 833.55L7.65229 833.538L7.64026 834.538L8.64018 834.55L8.65222 833.55ZM10.448 684.383L10.46 683.383L9.46008 683.371L9.44804 684.371L10.448 684.383ZM47.1053 684.825L48.1052 684.837L48.1173 683.837L47.1174 683.825L47.1053 684.825ZM45.8561 788.593L44.8562 788.581L44.8441 789.581L45.8441 789.593L45.8561 788.593ZM88.6763 792.493L89.6762 792.505L90.8202 697.478L89.8202 697.466L88.8203 697.454L87.6763 792.481L88.6763 792.493ZM89.8202 697.466L89.8082 698.466L125.338 698.893L125.35 697.893L125.362 696.893L89.8323 696.466L89.8202 697.466ZM125.35 697.893L124.35 697.881L123.206 792.908L124.206 792.92L125.206 792.933L126.35 697.905L125.35 697.893ZM124.206 792.92L124.218 791.921L88.6883 791.493L88.6763 792.493L88.6642 793.493L124.194 793.92L124.206 792.92ZM169.927 790.087L170.927 790.099L172.22 682.664L171.22 682.652L170.221 682.64L168.927 790.075L169.927 790.087ZM171.22 682.652L171.208 683.652L207.866 684.094L207.878 683.094L207.89 682.094L171.233 681.653L171.22 682.652ZM207.878 683.094L206.878 683.082L205.038 835.915L206.038 835.927L207.038 835.939L208.878 683.106L207.878 683.094ZM206.038 835.927L206.05 834.927L8.66426 832.551L8.65222 833.55L8.64018 834.55L206.026 836.927L206.038 835.927ZM8.65222 833.55L9.65215 833.562L11.4479 684.395L10.448 684.383L9.44804 684.371L7.65229 833.538L8.65222 833.55ZM10.448 684.383L10.4359 685.383L47.0933 685.825L47.1053 684.825L47.1174 683.825L10.46 683.383L10.448 684.383ZM47.1053 684.825L46.1054 684.813L44.8562 788.581L45.8561 788.593L46.856 788.605L48.1052 684.837L47.1053 684.825ZM45.8561 788.593L45.8441 789.593L169.915 791.087L169.927 790.087L169.939 789.087L45.8681 787.593L45.8561 788.593ZM208.315 646.747L208.303 647.747L209.303 647.759L209.315 646.759L208.315 646.747ZM10.9297 644.371L9.92973 644.359L9.9177 645.359L10.9176 645.371L10.9297 644.371ZM11.4796 598.69L11.4916 597.69L10.4917 597.678L10.4797 598.678L11.4796 598.69ZM171.644 600.618L171.632 601.618L172.632 601.63L172.644 600.63L171.644 600.618ZM172.836 501.643L172.848 500.643L171.848 500.631L171.836 501.631L172.836 501.643ZM210.057 502.091L211.057 502.104L211.069 501.104L210.069 501.092L210.057 502.091ZM208.315 646.747L208.327 645.747L10.9417 643.371L10.9297 644.371L10.9176 645.371L208.303 647.747L208.315 646.747ZM10.9297 644.371L11.9296 644.383L12.4795 598.702L11.4796 598.69L10.4797 598.678L9.92973 644.359L10.9297 644.371ZM11.4796 598.69L11.4676 599.69L171.632 601.618L171.644 600.618L171.656 599.618L11.4916 597.69L11.4796 598.69ZM171.644 600.618L172.644 600.63L173.835 501.655L172.836 501.643L171.836 501.631L170.644 600.606L171.644 600.618ZM172.836 501.643L172.823 502.643L210.045 503.091L210.057 502.091L210.069 501.092L172.848 500.643L172.836 501.643ZM210.057 502.091L209.057 502.079L207.315 646.735L208.315 646.747L209.315 646.759L211.057 502.104L210.057 502.091ZM191.57 374.475L190.867 373.764L191.57 374.475ZM13.9194 396.026L12.9194 396.014L12.9074 397.014L13.9073 397.026L13.9194 396.026ZM14.4693 350.345L14.4813 349.346L13.4814 349.334L13.4694 350.333L14.4693 350.345ZM164.058 340.583L164.731 341.323L164.058 340.583ZM164.838 275.728L165.529 275.005L164.838 275.728ZM15.5284 262.368L14.5285 262.356L14.5164 263.356L15.5164 263.368L15.5284 262.368ZM16.0715 217.251L16.0836 216.251L15.0837 216.239L15.0716 217.239L16.0715 217.251ZM193.152 243.073L193.871 242.378L193.152 243.073ZM215.765 309.056L214.765 309.043C214.43 336.863 206.427 358.391 190.867 373.764L191.57 374.475L192.272 375.186C208.299 359.353 216.425 337.268 216.765 309.068L215.765 309.056ZM191.57 374.475L190.867 373.764C175.317 389.127 153.235 396.703 124.467 396.357L124.455 397.357L124.443 398.357C153.576 398.707 176.237 391.029 192.272 375.186L191.57 374.475ZM124.455 397.357L124.467 396.357L13.9314 395.026L13.9194 396.026L13.9073 397.026L124.443 398.357L124.455 397.357ZM13.9194 396.026L14.9193 396.038L15.4692 350.358L14.4693 350.345L13.4694 350.333L12.9194 396.014L13.9194 396.026ZM14.4693 350.345L14.4572 351.345L123.301 352.656L123.313 351.656L123.325 350.656L14.4813 349.346L14.4693 350.345ZM123.313 351.656L123.301 352.656C142.196 352.883 156.089 349.184 164.731 341.323L164.058 340.583L163.385 339.844C155.298 347.199 142.028 350.881 123.325 350.656L123.313 351.656ZM164.058 340.583L164.731 341.323C173.346 333.487 177.685 322.437 177.855 308.317L176.855 308.305L175.855 308.293C175.69 321.995 171.498 332.464 163.385 339.844L164.058 340.583ZM176.855 308.305L177.855 308.317C178.025 294.197 173.953 283.046 165.529 275.005L164.838 275.728L164.148 276.451C172.081 284.024 176.02 294.591 175.855 308.293L176.855 308.305ZM164.838 275.728L165.529 275.005C157.079 266.939 143.279 262.906 124.385 262.678L124.373 263.678L124.36 264.678C143.063 264.903 156.241 268.904 164.148 276.451L164.838 275.728ZM124.373 263.678L124.385 262.678L15.5404 261.368L15.5284 262.368L15.5164 263.368L124.36 264.678L124.373 263.678ZM15.5284 262.368L16.5283 262.38L17.0715 217.263L16.0715 217.251L15.0716 217.239L14.5285 262.356L15.5284 262.368ZM16.0715 217.251L16.0595 218.251L126.596 219.582L126.608 218.582L126.62 217.582L16.0836 216.251L16.0715 217.251ZM126.608 218.582L126.596 219.582C155.363 219.928 177.256 228.034 192.432 243.767L193.152 243.073L193.871 242.378C178.221 226.154 155.752 217.933 126.62 217.582L126.608 218.582ZM193.152 243.073L192.432 243.767C207.617 259.51 215.1 281.224 214.765 309.043L215.765 309.056L216.765 309.068C217.104 280.867 209.512 258.593 193.871 242.378L193.152 243.073ZM214.001 174.486L213.989 175.486L214.989 175.498L215.001 174.498L214.001 174.486ZM16.615 172.11L15.615 172.098L15.603 173.098L16.6029 173.11L16.615 172.11ZM26.9348 41.0948L27.8398 41.5206L27.8448 41.5095L26.9348 41.0948ZM51.8235 11.7823L52.3578 12.6276L51.8235 11.7823ZM152.698 42.6088L153.618 42.2162L153.613 42.205L152.698 42.6088ZM159.884 148.453L159.173 149.156L160.855 150.856L160.884 148.465L159.884 148.453ZM139.544 127.903L139.556 126.903L137.118 126.873L138.833 128.606L139.544 127.903ZM214.551 128.806L215.551 128.818L215.563 127.818L214.563 127.806L214.551 128.806ZM144.62 127.964L145.294 128.702L147.165 126.994L144.632 126.964L144.62 127.964ZM122.663 148.005L121.663 147.993L121.635 150.297L123.337 148.744L122.663 148.005ZM54.1418 147.18L53.4501 147.902L55.114 149.496L55.1417 147.192L54.1418 147.18ZM32.6738 126.616L32.6858 125.616L30.1524 125.586L31.982 127.338L32.6738 126.616ZM214.001 174.486L214.013 173.486L16.627 171.11L16.615 172.11L16.6029 173.11L213.989 175.486L214.001 174.486ZM16.615 172.11L17.6149 172.122L18.6435 86.6823L17.6435 86.6703L16.6436 86.6582L15.615 172.098L16.615 172.11ZM17.6435 86.6703L18.6435 86.6823C18.8549 69.119 21.9327 54.0751 27.8397 41.5206L26.9348 41.0948L26.03 40.6691C19.974 53.5404 16.8576 68.8802 16.6436 86.6582L17.6435 86.6703ZM26.9348 41.0948L27.8448 41.5095C33.5655 28.954 41.7387 19.3404 52.3578 12.6276L51.8235 11.7823L51.2892 10.9371C40.3104 17.8772 31.8911 27.8053 26.0248 40.6802L26.9348 41.0948ZM51.8235 11.7823L52.3578 12.6276C62.9683 5.92021 75.5965 2.63388 90.2863 2.81072L90.2983 1.81079L90.3104 0.810864C75.2983 0.630141 62.2766 3.99133 51.2892 10.9371L51.8235 11.7823ZM90.2983 1.81079L90.2863 2.81072C104.785 2.98526 117.238 6.57231 127.685 13.5344L128.24 12.7023L128.794 11.8701C117.979 4.66326 105.137 0.989357 90.3104 0.810864L90.2983 1.81079ZM128.24 12.7023L127.685 13.5344C138.143 20.5029 146.178 30.3156 151.783 43.0126L152.698 42.6088L153.613 42.205C147.87 29.1956 139.6 19.0706 128.794 11.8701L128.24 12.7023ZM152.698 42.6088L151.778 43.0015C157.197 55.6956 159.819 70.8121 159.607 88.3793L160.607 88.3913L161.607 88.4034C161.821 70.6293 159.17 55.2242 153.617 42.2162L152.698 42.6088ZM160.607 88.3913L159.607 88.3793L158.884 148.441L159.884 148.453L160.884 148.465L161.607 88.4034L160.607 88.3913ZM159.884 148.453L160.595 147.75L140.255 127.199L139.544 127.903L138.833 128.606L159.173 149.156L159.884 148.453ZM139.544 127.903L139.532 128.903L214.539 129.806L214.551 128.806L214.563 127.806L139.556 126.903L139.544 127.903ZM214.551 128.806L213.551 128.794L213.001 174.474L214.001 174.486L215.001 174.498L215.551 128.818L214.551 128.806ZM144.62 127.964L143.946 127.225L121.989 147.266L122.663 148.005L123.337 148.744L145.294 128.702L144.62 127.964ZM122.663 148.005L123.663 148.017L124.355 90.4932L123.355 90.4811L122.355 90.4691L121.663 147.993L122.663 148.005ZM123.355 90.4811L124.355 90.4932C124.526 76.2768 121.627 65.4332 115.476 58.1458L114.712 58.7908L113.948 59.4357C119.661 66.2041 122.524 76.4874 122.355 90.4691L123.355 90.4811ZM114.712 58.7908L115.476 58.1458C109.326 50.8583 100.706 47.1873 89.7536 47.0554L89.7416 48.0554L89.7296 49.0553C100.207 49.1814 108.235 52.6674 113.948 59.4357L114.712 58.7908ZM89.7416 48.0554L89.7536 47.0554C78.6194 46.9214 69.8174 50.3787 63.4894 57.5199L64.2378 58.1832L64.9863 58.8463C70.8569 52.2214 79.0574 48.9268 89.7296 49.0553L89.7416 48.0554ZM64.2378 58.1832L63.4894 57.5199C57.1648 64.6572 54.0055 75.4278 53.8344 89.6442L54.8343 89.6562L55.8342 89.6683C56.0026 75.6866 59.1123 65.4752 64.9863 58.8463L64.2378 58.1832ZM54.8343 89.6562L53.8344 89.6442L53.1419 147.168L54.1418 147.18L55.1417 147.192L55.8342 89.6683L54.8343 89.6562ZM54.1418 147.18L54.8335 146.458L33.3655 125.894L32.6738 126.616L31.982 127.338L53.4501 147.902L54.1418 147.18ZM32.6738 126.616L32.6617 127.616L144.608 128.964L144.62 127.964L144.632 126.964L32.6858 125.616L32.6738 126.616Z" fill="#FD0136" mask="url(#path-1-outside-1_4_190)"/>
</svg>
